<svg width="63" height="92" viewBox="0 0 63 92" fill="none" xmlns="http://www.w3.org/2000/svg">
<g filter="url(#filter0_d_6_281)">
<path d="M24.7349 80.8647L24.9826 81.0627C25.0817 81.1419 25.1684 81.2211 25.2675 81.2871L25.5896 81.4984L25.8498 81.6568C25.9613 81.7228 26.0728 81.7756 26.1842 81.8284C26.2957 81.8812 26.3701 81.9209 26.4692 81.9737L26.7913 82.0925C26.9028 82.0925 27.0019 82.1849 27.101 82.2113C27.215 82.2483 27.3308 82.2791 27.4478 82.3037C27.5496 82.3363 27.653 82.3628 27.7575 82.3829C27.8966 82.4168 28.0372 82.4433 28.1787 82.4621H28.4265C28.8841 82.5017 29.3439 82.5017 29.8015 82.4621H30.0617C30.198 82.4621 30.3342 82.4621 30.4705 82.3829C30.5791 82.3628 30.6867 82.3364 30.7926 82.3037C30.9055 82.2791 31.0171 82.2483 31.1271 82.2113C31.2328 82.1797 31.3363 82.14 31.4368 82.0925L31.7712 81.9737L32.0562 81.8284C32.1671 81.7792 32.2747 81.7219 32.3782 81.6568L32.6508 81.4984C32.7499 81.4984 32.8614 81.3664 32.9605 81.2871C33.0604 81.2197 33.1556 81.1447 33.2454 81.0627L33.5055 80.8647C33.679 80.7063 33.8524 80.5478 34.0135 80.3762L56.0269 56.9167C57.3018 55.5269 58.0108 53.6572 57.9999 51.7137C57.989 49.7701 57.2591 47.9097 55.9687 46.5362C54.6782 45.1628 52.9315 44.3872 51.1078 44.3781C49.284 44.3689 47.5305 45.1269 46.228 46.4873L36.0451 57.3523L36.0451 8.37373C36.0451 6.41648 35.3155 4.5394 34.0168 3.15542C32.7182 1.77144 30.9568 0.993896 29.1202 0.993896C27.2836 0.993896 25.5222 1.77144 24.2236 3.15542C22.9249 4.5394 22.1953 6.41648 22.1953 8.37373L22.1953 57.3523L12 46.4873C11.3666 45.7601 10.602 45.1765 9.75212 44.7714C8.90221 44.3663 7.98438 44.148 7.0535 44.1296C6.12262 44.1112 5.19782 44.293 4.33438 44.6642C3.47094 45.0353 2.6866 45.5883 2.02825 46.2899C1.36991 46.9914 0.851089 47.8273 0.502799 48.7475C0.15451 49.6676 -0.0160972 50.6532 0.00119455 51.6452C0.0184863 52.6372 0.22332 53.6154 0.603436 54.5211C0.983552 55.4268 1.53115 56.2416 2.21349 56.9167L24.2269 80.3762C24.3875 80.5491 24.557 80.7122 24.7349 80.8647Z" fill="#BC7AFF"/>
<path d="M27.6023 80.8752C27.5555 80.851 27.4578 80.8019 27.334 80.7595C27.2835 80.7422 27.2247 80.7246 27.1584 80.7095L27.0523 80.6704C26.9781 80.6313 26.8974 80.5899 26.794 80.541C26.6798 80.4869 26.6263 80.4606 26.5815 80.4345C26.5795 80.4333 26.5775 80.4321 26.5755 80.431L26.3509 80.294L26.059 80.1026C26.0584 80.1021 26.0574 80.1014 26.0562 80.1005C26.0514 80.0968 26.042 80.0894 26.0263 80.0767C26.023 80.0739 26.0196 80.0712 26.0163 80.0684C26.0021 80.0568 25.9873 80.0444 25.9647 80.0256C25.9396 80.0049 25.9074 79.9782 25.872 79.9499L25.6448 79.7683C25.5145 79.6555 25.3897 79.5349 25.2709 79.4069L25.2658 79.4014L3.25232 55.9419L3.2342 55.9226L3.21538 55.904C2.66944 55.3638 2.22634 54.7069 1.91701 53.9698C1.60764 53.2327 1.43971 52.4334 1.42554 51.6204C1.41137 50.8074 1.55132 50.0015 1.83511 49.2518C2.11887 48.5021 2.53936 47.827 3.06708 47.2646C3.59461 46.7025 4.2179 46.2648 4.89698 45.9729C5.57578 45.6811 6.29931 45.5395 7.02531 45.5539C7.75132 45.5683 8.47002 45.7384 9.13919 46.0574C9.80864 46.3764 10.4173 46.8392 10.9258 47.423L10.9431 47.4428L10.9612 47.4621L21.1565 58.3271L23.6199 60.9523V57.3523L23.6199 8.37373C23.6199 6.76609 24.22 5.2411 25.2624 4.13021C26.3019 3.02238 27.6917 2.41846 29.1202 2.41846C30.5487 2.41846 31.9385 3.02238 32.978 4.13021C34.0204 5.2411 34.6205 6.76609 34.6205 8.37373L34.6205 57.3523V60.9555L37.0845 58.3265L47.2621 47.4671C48.3035 46.3822 49.6844 45.7955 51.1006 45.8026C52.5192 45.8097 53.8975 46.4123 54.9304 47.5117C55.9662 48.614 56.5664 50.1254 56.5753 51.7217C56.5843 53.3153 56.003 54.8324 54.9823 55.9481C54.9806 55.9499 54.9788 55.9518 54.9771 55.9537L32.9746 79.4014C32.8678 79.5153 32.7483 79.6267 32.5916 79.7701L32.3825 79.9293L32.332 79.9677L32.2852 80.0104C32.2461 80.0461 32.2053 80.0782 32.1631 80.1067L32.1157 80.1387L32.0711 80.1743C32.0521 80.1895 32.0338 80.2047 32.0168 80.2191L31.9349 80.2668L31.6623 80.4252L31.641 80.4376L31.6201 80.4507C31.574 80.4797 31.5267 80.5049 31.4786 80.5262L31.4434 80.5418L31.4092 80.5592L31.2069 80.6623L30.9599 80.7501L30.8923 80.7741L30.8275 80.8048C30.7919 80.8216 30.7557 80.8354 30.7193 80.8463L30.696 80.8533L30.6729 80.8611C30.6122 80.8815 30.551 80.8984 30.4894 80.9118L30.4306 80.9246L30.373 80.9423C30.3195 80.9588 30.2655 80.9721 30.211 80.9822L29.9681 81.0272L29.9503 81.0376H29.8015H29.74L29.6788 81.0429C29.3029 81.0754 28.9251 81.0754 28.5492 81.0429L28.488 81.0376H28.4265H28.2835C28.2204 81.027 28.1576 81.0142 28.0951 80.9989L28.0613 80.9907L28.0271 80.9841C27.9786 80.9747 27.9304 80.9624 27.8827 80.9472L27.8126 80.9247L27.7405 80.9095C27.6942 80.8998 27.6482 80.8884 27.6023 80.8752Z" stroke="#26103D" stroke-width="2.84912"/>
</g>
<defs>
<filter id="filter0_d_6_281" x="0" y="0.993896" width="62.4772" height="90.6558" filterUnits="userSpaceOnUse" color-interpolation-filters="sRGB">
<feFlood flood-opacity="0" result="BackgroundImageFix"/>
<feColorMatrix in="SourceAlpha" type="matrix" values="0 0 0 0 0 0 0 0 0 0 0 0 0 0 0 0 0 0 127 0" result="hardAlpha"/>
<feOffset dx="4.47719" dy="9.15789"/>
<feComposite in2="hardAlpha" operator="out"/>
<feColorMatrix type="matrix" values="0 0 0 0 0.14902 0 0 0 0 0.0627451 0 0 0 0 0.239216 0 0 0 1 0"/>
<feBlend mode="normal" in2="BackgroundImageFix" result="effect1_dropShadow_6_281"/>
<feBlend mode="normal" in="SourceGraphic" in2="effect1_dropShadow_6_281" result="shape"/>
</filter>
</defs>
</svg>
