<svg width="51" height="51" viewBox="0 0 51 51" fill="none" xmlns="http://www.w3.org/2000/svg">
<path d="M40.7998 14.875H39.9711C40.2257 14.1948 40.3623 13.4762 40.3748 12.75C40.3302 11.0215 39.6035 9.38086 38.3533 8.18641C37.1031 6.99195 35.4311 6.34074 33.7023 6.375C32.0035 6.41169 30.3457 6.90445 28.9026 7.8017C27.4596 8.69894 26.2843 9.96765 25.4998 11.475C24.7154 9.96765 23.5401 8.69894 22.097 7.8017C20.6539 6.90445 18.9962 6.41169 17.2973 6.375C15.5686 6.34074 13.8965 6.99195 12.6463 8.18641C11.3961 9.38086 10.6694 11.0215 10.6248 12.75C10.6374 13.4762 10.7739 14.1948 11.0286 14.875H10.1998C9.64064 14.9281 9.09754 15.0915 8.6019 15.3558C8.10626 15.6201 7.66793 15.98 7.31224 16.4147C6.95656 16.8494 6.69057 17.3504 6.52967 17.8885C6.36877 18.4267 6.31614 18.9914 6.37482 19.55V27.2C6.27555 28.229 6.54011 29.2603 7.12247 30.1144C7.70484 30.9685 8.56817 31.5915 9.56232 31.875V41.1613C9.62792 42.1251 10.066 43.0256 10.7839 43.6721C11.5018 44.3186 12.4431 44.6604 13.4086 44.625H37.5911C38.5704 44.6596 39.5238 44.3062 40.2441 43.6417C40.9643 42.9772 41.3931 42.0552 41.4373 41.0762V31.875C42.4315 31.5915 43.2948 30.9685 43.8772 30.1144C44.4595 29.2603 44.7241 28.229 44.6248 27.2V19.55C44.6835 18.9914 44.6309 18.4267 44.47 17.8885C44.3091 17.3504 44.0431 16.8494 43.6874 16.4147C43.3317 15.98 42.8934 15.6201 42.3977 15.3558C41.9021 15.0915 41.359 14.9281 40.7998 14.875ZM40.3748 19.55V27.2C40.4003 27.3405 40.4003 27.4845 40.3748 27.625H27.6248V19.125H40.3748C40.4003 19.2655 40.4003 19.4095 40.3748 19.55ZM33.7023 10.625C34.3043 10.5899 34.8959 10.7932 35.3492 11.1908C35.8026 11.5885 36.0812 12.1486 36.1248 12.75C36.0812 13.3514 35.8026 13.9115 35.3492 14.3092C34.8959 14.7068 34.3043 14.9101 33.7023 14.875H28.4748C28.8466 13.7398 29.5372 12.7355 30.4641 11.9819C31.391 11.2283 32.5151 10.7573 33.7023 10.625ZM14.8748 12.75C14.9185 12.1486 15.1971 11.5885 15.6504 11.1908C16.1037 10.7932 16.6953 10.5899 17.2973 10.625C18.4808 10.7611 19.6003 11.2339 20.5231 11.9872C21.4459 12.7405 22.1333 13.7428 22.5036 14.875H17.2973C16.6953 14.9101 16.1037 14.7068 15.6504 14.3092C15.1971 13.9115 14.9185 13.3514 14.8748 12.75ZM10.6248 19.55C10.5993 19.4095 10.5993 19.2655 10.6248 19.125H23.3748V27.625H10.6248C10.5993 27.4845 10.5993 27.3405 10.6248 27.2V19.55ZM13.8123 31.875H23.3748V40.375H13.8123V31.875ZM27.6248 40.375V31.875H37.1873V40.375H27.6248Z" fill="#4B4646"/>
</svg>
