<?xml version="1.0" standalone="no"?>
<!DOCTYPE svg PUBLIC "-//W3C//DTD SVG 20010904//EN"
 "http://www.w3.org/TR/2001/REC-SVG-20010904/DTD/svg10.dtd">
<svg version="1.0" xmlns="http://www.w3.org/2000/svg"
 width="76.000000pt" height="76.000000pt" viewBox="0 0 76.000000 76.000000"
 preserveAspectRatio="xMidYMid meet">
<metadata>
Created by potrace 1.14, written by Peter Selinger 2001-2017
</metadata>
<g transform="translate(0.000000,76.000000) scale(0.100000,-0.100000)"
fill="#000000" stroke="none">
<path d="M111 713 c-6 -21 -28 -112 -50 -203 -34 -142 -38 -167 -25 -176 7 -6
14 -19 14 -28 0 -14 16 -16 125 -16 69 0 125 -4 125 -8 0 -4 -16 -55 -35 -112
-19 -57 -35 -105 -35 -107 0 -2 7 -3 15 -3 9 0 15 -10 15 -26 0 -17 5 -24 14
-22 15 3 458 423 464 439 2 5 -9 9 -24 9 -26 0 -27 1 -9 20 24 27 15 29 -132
32 l-122 3 59 90 c54 84 57 91 39 99 -13 6 -17 15 -13 28 5 17 -5 18 -205 18
l-210 0 -10 -37z m346 -85 c-40 -62 -77 -119 -81 -126 -7 -11 20 -13 153 -10
89 1 160 0 159 -4 -5 -15 -433 -417 -436 -410 -1 4 16 61 38 127 22 65 40 125
40 132 0 10 -33 13 -145 13 -80 0 -145 3 -145 7 0 7 64 282 81 346 l10 37 199
0 199 0 -72 -112z"/>
</g>
</svg>
